<?xml version="1.0" encoding="UTF-8"?>
<svg version="1.1" viewBox="0 0 48 48" xmlns="http://www.w3.org/2000/svg">
 <g>
  <path d="m22.021 6.2392-0.84766 0.09375-0.91211 3.375c-0.49925 0.12982-0.98963 0.2857-1.4727 0.4668l-2.293-1.9023-0.76172-0.12891-0.38281 0.21094c-1.223 0.6745-2.3615 1.4898-3.3945 2.4297l-0.32031 0.29102-0.12891 0.76367 1.0625 2.7852c-0.32738 0.39879-0.63195 0.81343-0.91602 1.2441l-3.4902-0.22656-0.36133 0.77148c-0.59297 1.2646-1.0351 2.5952-1.3184 3.9629l-0.17383 0.83398 2.9277 1.9102c-0.03066 0.5163-0.03512 1.0321-0.01172 1.5488l-2.7051 1.707-0.12891 0.77539 0.04102 0.2207c0.26328 1.371 0.68757 2.706 1.2617 3.9785l0.34961 0.77734 3.4922-0.17383c0.27836 0.43527 0.57816 0.85394 0.90039 1.2578l-1.293 3.248 0.62305 0.58203c1.0189 0.95476 2.1448 1.7862 3.3574 2.4785l0.74219 0.42383 2.7207-2.1953c0.4807 0.18852 0.96907 0.35089 1.4668 0.48828l0.86524 3.3867 0.8457 0.10742c1.386 0.17325 2.7875 0.18246 4.1758 0.0293l0.84766-0.09375 0.91211-3.375c0.49864-0.12972 0.98826-0.28592 1.4707-0.4668l2.6914 2.2344 0.74609-0.41211c1.2239-0.67488 2.3647-1.4909 3.3984-2.4316l0.63086-0.57422-1.248-3.2656c0.32737-0.39879 0.63195-0.81343 0.91602-1.2441l3.4902 0.22656 0.36328-0.77148c0.59297-1.2646 1.0351-2.5952 1.3184-3.9629l0.17188-0.83398-2.9258-1.9102c0.03066-0.5163 0.03316-1.0321 0.0098-1.5488l2.955-1.8672-0.16016-0.83789c-0.26392-1.3712-0.68879-2.706-1.2637-3.9785l-0.34961-0.77539-3.4922 0.17383c-0.278-0.43473-0.57667-0.8544-0.89844-1.2578l1.291-3.248-0.62109-0.58203c-1.0192-0.95406-2.1467-1.785-3.3594-2.4766l-0.19336-0.11133-0.77539-0.13086-2.4922 2.0117c-0.48108-0.1887-0.97062-0.35079-1.4688-0.48828l-0.86328-3.3887-0.8457-0.10547c-1.386-0.17325-2.7875-0.18246-4.1758-0.0293zm1.0938 2.4902c0.65077-0.03672 1.301-0.03246 1.9512 0.01367l0.77344 3.0391 0.75586 0.16406c0.8664 0.18801 1.7094 0.46706 2.5156 0.83594l0.15039 0.07031 0.71875 0.12109 2.2754-1.8359c0.54797 0.35261 1.0715 0.73895 1.5703 1.1582l-1.1582 2.9141 0.51367 0.57617c0.59018 0.66109 1.1077 1.3843 1.543 2.1562l0.37891 0.67188 3.1328-0.15625c0.23597 0.60689 0.43268 1.2255 0.58984 1.8574l-2.4688 1.5625-0.12109 0.71875 0.01758 0.16602c0.089 0.88208 0.08209 1.7716-0.01953 2.6523l-0.08789 0.76758 2.625 1.7129c-0.16619 0.63063-0.37034 1.2471-0.61523 1.8516l-3.1328-0.20312-0.38867 0.66797c-0.446 0.76566-0.97298 1.4801-1.5723 2.1328l-0.52148 0.57031 1.1172 2.9277c-0.50565 0.41299-1.0339 0.79328-1.5879 1.1387l-2.4141-2.0039-0.70703 0.31055c-0.81116 0.35662-1.6587 0.62571-2.5273 0.80078l-0.75782 0.15235-0.81836 3.0293c-0.65112 0.03672-1.3007 0.0306-1.9512-0.01563l-0.77344-3.0371-0.75586-0.16406c-0.8664-0.18801-1.7094-0.46901-2.5156-0.83789l-0.15039-0.06836-0.71875-0.12109-2.2754 1.8359c-0.54797-0.35301-1.0715-0.73853-1.5703-1.1582l1.1602-2.9141-0.51562-0.57617c-0.59018-0.6611-1.1077-1.3843-1.543-2.1562l-0.37891-0.67188-3.1309 0.15625c-0.23605-0.60794-0.43091-1.2283-0.58789-1.8613l2.4648-1.5586 0.12109-0.71875-0.01563-0.16602c-0.089-0.88208-0.08404-1.7716 0.01758-2.6523l0.08984-0.76758-2.625-1.7129c0.16603-0.62992 0.37068-1.2458 0.61523-1.8496l3.1309 0.20117 0.38867-0.66797c0.44601-0.76567 0.97297-1.4821 1.5723-2.1348l0.52344-0.56836-1.1172-2.9277c0.50541-0.41272 1.0342-0.79152 1.5879-1.1367l2.4121 2.002 0.70703-0.3125c0.81116-0.35662 1.6587-0.62376 2.5273-0.79883l0.75781-0.15234zm2.1348 7.6191c-4.2114-0.69879-8.2224 2.1712-8.9199 6.3828-0.69738 4.2107 2.1721 8.2205 6.3828 8.918 4.2098 0.69723 8.2194-2.1712 8.918-6.3809 0.69864-4.2105-2.1704-8.2212-6.3809-8.9199zm-0.41016 2.4668c2.8776 0.47751 4.8017 3.1653 4.3242 6.043-0.47741 2.877-3.1658 4.8007-6.043 4.3242-2.8778-0.47665-4.8028-3.1652-4.3262-6.043 0.47675-2.8784 3.1667-4.8018 6.0449-4.3242z" stop-color="#000000" stroke-linecap="square"/>
 </g>
</svg>
