<?xml version="1.0" encoding="UTF-8"?>
<svg version="1.1" viewBox="0 0 48 48" xmlns="http://www.w3.org/2000/svg">
 <g>
  <path d="m26.219 6.2352a17.902 17.902 0 0 0-4.1838-0.03028l-0.93269 3.4519a14.634 14.634 0 0 0-2.9982 0.94899l-2.7485-2.2813-2e-3 -3.44e-4a17.902 17.902 0 0 0-3.4024 2.4347l-3.45e-4 2e-3 1.2724 3.3376a14.634 14.634 0 0 0-1.8657 2.5316l-3.5682-0.23109a17.902 17.902 0 0 0-1.3214 3.9697l2.9927 1.9528a14.634 14.634 0 0 0-0.02253 3.1464 14.634 14.634 0 0 0-3.45e-4 2e-3l-3.0185 1.9075a17.902 17.902 0 0 0-3.44e-4 2e-3 17.902 17.902 0 0 0 1.2629 3.9865l3.5699-0.17812a14.634 14.634 0 0 0 1.8303 2.5578l-1.3206 3.3215a17.902 17.902 0 0 0 3.3654 2.4838l2.7819-2.2432a14.634 14.634 0 0 0 2e-3 3.45e-4 14.634 14.634 0 0 0 2.9853 0.99398l0.88263 3.4628a17.902 17.902 0 0 0 4.1838 0.03028l0.93269-3.4519a14.634 14.634 0 0 0 2.9982-0.94899l2.7502 2.2837a17.902 17.902 0 0 0 3.4047-2.4364l-1.2741-3.34a14.634 14.634 0 0 0 1.8657-2.5316l3.5682 0.23109a17.902 17.902 0 0 0 1.3214-3.9697l-2.9927-1.9528a14.634 14.634 0 0 0 0.02254-3.1464 14.634 14.634 0 0 0 3.44e-4 -2e-3l3.0209-1.9092a17.902 17.902 0 0 0-1.265-3.9869l-3.5699 0.17816a14.634 14.634 0 0 0-1.8303-2.5578l1.3206-3.3215a17.902 17.902 0 0 0-3.3657-2.4817 17.902 17.902 0 0 0-2e-3 -3.45e-4l-2.7795 2.2415-2e-3 -3.45e-4a14.634 14.634 0 0 0-2.9854-0.99397zm-1.0737 10.851a7.0076 7.0076 0 0 1 5.766 8.0602 7.0076 7.0076 0 0 1-8.0581 5.7663 7.0076 7.0076 0 0 1-5.7684-8.0584 7.0076 7.0076 0 0 1 8.0605-5.768z" fill-opacity=".99993" stop-color="#000000" stroke-linecap="square" stroke-width="1.0773"/>
 </g>
</svg>
