<?xml version="1.0" encoding="UTF-8"?>
<svg version="1.1" viewBox="0 0 48 48" xmlns="http://www.w3.org/2000/svg">
 <path d="m28.354 9a10.645 10.37 0 0 0-10.645 10.369 10.645 10.37 0 0 0 2.3281 6.4727l-11.037 11.037 2.1211 2.1211 11.133-11.133h0.001953a10.645 10.37 0 0 0 6.0977 1.8711 10.645 10.37 0 0 0 10.646-10.369 10.645 10.37 0 0 0-10.646-10.369zm0 2.9219a7.645 7.4473 0 0 1 7.6465 7.4473 7.645 7.4473 0 0 1-7.6465 7.4473 7.645 7.4473 0 0 1-7.6445-7.4473 7.645 7.4473 0 0 1 7.6445-7.4473z" stroke-linecap="square" stroke-width="1.3295" style="paint-order:markers stroke fill"/>
</svg>
