<?xml version="1.0" encoding="UTF-8"?>
<!-- Created with Inkscape (http://www.inkscape.org/) -->
<svg width="64" height="64" version="1.1" viewBox="0 0 16.933 16.933" xmlns="http://www.w3.org/2000/svg">
 <g transform="matrix(.47258 0 0 .47258 -21.795 -41.144)" fill="none" stroke="#000" stroke-width="1.4613">
  <path d="m13.81 122.16 25.283-14.597" fill="#000" fill-opacity=".51909" stroke="none" style="paint-order:fill markers stroke"/>
  <g transform="matrix(.9991 0 0 .99911 .71941 .10996)">
   <path d="m63.001 87.987a12.186 12.186 0 0 0-8.6606 3.6124l8.5728 8.5728h12.273a12.186 12.186 0 0 0-12.185-12.185z" fill="#000" stroke="#000" stroke-width="1.3875" style="paint-order:fill markers stroke"/>
   <path d="m62.913 100.17a9.0096 9.4085 0 0 0-6.0054 8.8694 9.0096 9.4085 0 0 0 0 0.0824v1.6552a9.1407 9.4085 0 0 1 0 0.0824 9.1407 9.4085 0 0 1-5.3983 8.5824v0.28693h21.559a12.186 12.186 0 0 1-3.9754-9.0053 12.186 12.186 0 0 1 6.0953-10.554h-12.189z" fill="#000" stroke="#fff" stroke-width="1.3874" style="paint-order:fill markers stroke"/>
   <g fill="#fff">
    <path d="m51.509 119.44v2.7311h23.728v-2.7311z" stroke="#000" stroke-width="1.4346" style="paint-order:fill markers stroke"/>
    <g stroke="#fff" stroke-width="1.3875">
     <path d="m63.001 100.17v-12.185" style="paint-order:fill markers stroke"/>
     <path d="m63.001 100.17 6.0926-10.553" style="paint-order:fill markers stroke"/>
     <path d="m63.401 99.479 9.9461-5.7423" style="paint-order:fill markers stroke"/>
    </g>
   </g>
  </g>
 </g>
</svg>
