<?xml version="1.0" encoding="UTF-8"?>
<!-- Created with Inkscape (http://www.inkscape.org/) -->
<svg width="64" height="64" version="1.1" viewBox="0 0 16.933 16.933" xmlns="http://www.w3.org/2000/svg">
 <g transform="matrix(.47258 0 0 .47258 -19.208 -41.144)" fill="none" stroke="#000" stroke-width="1.4613">
  <rect x="47.326" y="116.99" width="22.47" height="5.1723" style="paint-order:fill markers stroke"/>
  <path d="m58.561 88.917c-22.47 28.076 0 28.076 0 28.076 1.9e-5 -2.0146 0.14675-3.7236 0.35513-5.3006 0.74665-6.5872 2.7932-11.351 5.4122-14.668-1.4599-2.4019-3.3548-5.0927-5.7673-8.1071zm0.35513 22.775c-0.18934 1.6705-0.35511 3.3751-0.35513 5.3006 0 0 15.568 3.4e-4 7.8301-16.19-3.5006 0.6424-6.5073 3.5661-7.475 10.889z" fill="#000" style="paint-order:fill markers stroke"/>
 </g>
</svg>
