<?xml version="1.0" encoding="UTF-8"?>
<!-- Created with Inkscape (http://www.inkscape.org/) -->
<svg width="64" height="64" version="1.1" viewBox="0 0 16.933 16.933" xmlns="http://www.w3.org/2000/svg">
 <g>
  <rect x="-2.8229e-7" y="-2.8229e-7" width="16.933" height="16.933" style="paint-order:fill markers stroke"/>
  <path d="m14.442 14.124-0.01498-0.01498c0.4697-0.62921 0.23145-1.1647-0.15566-1.5566-0.0025-0.0026-0.0051-0.0051-0.0077-0.0077-0.39296-0.39398-0.93307-0.64204-1.5687-0.16769l-0.01498-0.01498 1.6933-1.6933-0.44067-0.44067-1.4737 1.4737c-9.4723-9.4481-10.175-9.3475-10.21-9.3316l-3.653e-4 3.654e-4 -3.655e-4 3.654e-4 -3.653e-4 3.654e-4 -3.655e-4 3.654e-4 -3.653e-4 3.654e-4c-0.015896 0.034665-0.11953 0.7347 9.3316 10.21l-1.4733 1.4733 0.44067 0.44067 1.6933-1.6933 1.762 1.762zm-0.14762-0.14762-1.4667-1.4667c0.59307-0.0813 0.95273 0.06253 1.1667 0.29999 0.23747 0.214 0.38131 0.57363 0.29999 1.1667z" fill="#fff" style="paint-order:fill markers stroke"/>
  <path d="m2.4905 14.124 0.01498-0.01498c-0.4697-0.62921-0.23145-1.1647 0.15566-1.5566 0.0025-0.0026 0.0051-0.0051 0.0077-0.0077 0.39296-0.39398 0.93307-0.64204 1.5687-0.16769l0.01498-0.01498-1.6933-1.6933 0.44067-0.44067 1.4737 1.4737c9.4723-9.4481 10.175-9.3475 10.21-9.3316l0.001461 0.001461 3.65e-4 3.66e-4c0.0159 0.03467 0.11953 0.7347-9.3316 10.21l1.4733 1.4733-0.44067 0.44067-1.6933-1.6933-1.762 1.762zm0.14762-0.14762 1.4667-1.4667c-0.59307-0.0813-0.95273 0.06253-1.1667 0.29999-0.23747 0.214-0.38131 0.57363-0.29999 1.1667z" fill="#fff" style="paint-order:fill markers stroke"/>
 </g>
</svg>
