<?xml version="1.0" encoding="UTF-8"?>
<!-- Created with Inkscape (http://www.inkscape.org/) -->
<svg width="64" height="64" version="1.1" viewBox="0 0 16.933 16.933" xmlns="http://www.w3.org/2000/svg">
 <g transform="matrix(.47258 0 0 .47258 -19.208 -41.144)" fill="none" stroke="#000" stroke-width="1.4613">
  <path d="m13.81 122.16 25.283-14.597" fill="#000" fill-opacity=".51909" stroke="none" style="paint-order:fill markers stroke"/>
  <g transform="matrix(.9991 0 0 .99911 .71941 .10996)">
   <g fill="#fff" stroke="#000">
    <g stroke-width="1.4185">
     <path d="m51.766 98.061c-1.4932-2.5863-4.7781-3.4656-7.3643-1.9724-2.5863 1.4932-3.4662 4.7771-1.973 7.3634l9.2254 15.979 12.45-8e-5z" style="paint-order:fill markers stroke"/>
     <path d="m63.992 98.061c1.4932-2.5863 4.7781-3.4656 7.3643-1.9724 2.5863 1.4932 3.4662 4.7771 1.973 7.3634l-9.2254 15.979-12.45-8e-5z" style="paint-order:fill markers stroke"/>
     <path d="m57.88 92.477c-2.9864 0-5.3915 2.404-5.3915 5.3904v21.563h5.3915l5.3904-3.1118v-18.451c4e-6 -2.9864-2.404-5.3904-5.3904-5.3904z" style="paint-order:fill markers stroke"/>
    </g>
    <rect x="46.15" y="116.73" width="23.458" height="5.3997" stroke-width="1.5255" style="paint-order:fill markers stroke"/>
   </g>
   <rect x="55.157" y="88.991" width="5.4475" height="1.5255" fill="#000" stroke="none" style="paint-order:fill markers stroke"/>
   <rect transform="rotate(90)" x="87.03" y="-58.643" width="5.4475" height="1.5255" fill="#000" stroke="none" style="paint-order:fill markers stroke"/>
  </g>
 </g>
</svg>
