<?xml version="1.0" encoding="UTF-8"?>
<!-- Created with Inkscape (http://www.inkscape.org/) -->
<svg width="64" height="64" version="1.1" viewBox="0 0 16.933 16.933" xmlns="http://www.w3.org/2000/svg">
 <g transform="matrix(.48177 0 0 .48177 -19.746 -42.274)" fill="#fff" stroke="#000" stroke-linecap="round" stroke-width="1.4664">
  <path d="m53.357 88.484a3.3058 3.3058 0 0 0-0.43235 0.0095 3.3058 3.3058 0 0 0-3.0052 3.5811 3.3058 3.3058 0 0 0 2.9665 3.0016l-1.2316 12.395-4.645-6.1693a3.3058 3.3058 0 0 0 0.34912-0.30336 3.3058 3.3058 0 0 0 0-4.6754 3.3058 3.3058 0 0 0-4.675-2e-6 3.3058 3.3058 0 0 0-1e-6 4.6754 3.3058 3.3058 0 0 0 3.3397 0.81224l4.72 14.832h15.633l4.7196-14.832a3.3058 3.3058 0 0 0 2.6553-0.28719 3.3058 3.3058 0 0 0 1.2103-4.5156 3.3058 3.3058 0 0 0-4.516-1.2103 3.3058 3.3058 0 0 0-1.2099 4.516 3.3058 3.3058 0 0 0 0.87457 0.98818l-4.645 6.1693-1.2316-12.395a3.3058 3.3058 0 0 0 2.3807-1.3933 3.3058 3.3058 0 0 0-0.81184-4.6044 3.3058 3.3058 0 0 0-4.604 0.81184 3.3058 3.3058 0 0 0 0.81184 4.6044 3.3058 3.3058 0 0 0 0.34912 0.21341l-3.7996 7.1748-3.8-7.1748a3.3058 3.3058 0 0 0 1.7464-3.2095 3.3058 3.3058 0 0 0-3.1491-3.0146z" style="paint-order:fill markers stroke"/>
  <rect x="46.683" y="116.64" width="23.754" height="5.4678" style="paint-order:fill markers stroke"/>
 </g>
</svg>
